<?xml version="1.0" encoding="UTF-8" standalone="no"?>
<svg
   viewBox="0 0 24 24"
   version="1.1"
   id="svg8"
   sodipodi:docname="settings-4-fill.svg"
   inkscape:version="1.1.2 (0a00cf5339, 2022-02-04, custom)"
   xmlns:inkscape="http://www.inkscape.org/namespaces/inkscape"
   xmlns:sodipodi="http://sodipodi.sourceforge.net/DTD/sodipodi-0.dtd"
   xmlns="http://www.w3.org/2000/svg"
   xmlns:svg="http://www.w3.org/2000/svg">
  <defs
     id="defs12" />
  <sodipodi:namedview
     id="namedview10"
     pagecolor="#505050"
     bordercolor="#eeeeee"
     borderopacity="1"
     inkscape:pageshadow="0"
     inkscape:pageopacity="0"
     inkscape:pagecheckerboard="0"
     showgrid="false"
     inkscape:zoom="24.483572"
     inkscape:cx="7.2906028"
     inkscape:cy="11.844677"
     inkscape:window-width="1920"
     inkscape:window-height="1017"
     inkscape:window-x="-8"
     inkscape:window-y="-8"
     inkscape:window-maximized="1"
     inkscape:current-layer="svg8" />
  <g
     id="g6">
    <path
       fill="none"
       d="M0 0h24v24H0z"
       id="path2" />
    <path
       d="M5.334 4.545a9.99 9.99 0 0 1 3.542-2.048A3.993 3.993 0 0 0 12 3.999a3.993 3.993 0 0 0 3.124-1.502 9.99 9.99 0 0 1 3.542 2.048 3.993 3.993 0 0 0 .262 3.454 3.993 3.993 0 0 0 2.863 1.955 10.043 10.043 0 0 1 0 4.09c-1.16.178-2.23.86-2.863 1.955a3.993 3.993 0 0 0-.262 3.455 9.99 9.99 0 0 1-3.542 2.047A3.993 3.993 0 0 0 12 20a3.993 3.993 0 0 0-3.124 1.502 9.99 9.99 0 0 1-3.542-2.047 3.993 3.993 0 0 0-.262-3.455 3.993 3.993 0 0 0-2.863-1.954 10.043 10.043 0 0 1 0-4.091 3.993 3.993 0 0 0 2.863-1.955 3.993 3.993 0 0 0 .262-3.454zM13.5 14.597a3 3 0 1 0-3-5.196 3 3 0 0 0 3 5.196z"
       id="path4"
       style="fill:#000000;stroke:#ffffff;stroke-opacity:1" />
  </g>
</svg>
