<?xml version="1.0" encoding="UTF-8" standalone="no"?>
<svg
   viewBox="0 0 24 24"
   version="1.1"
   id="svg8"
   sodipodi:docname="tools-fill.svg"
   inkscape:version="1.1.2 (0a00cf5339, 2022-02-04, custom)"
   xmlns:inkscape="http://www.inkscape.org/namespaces/inkscape"
   xmlns:sodipodi="http://sodipodi.sourceforge.net/DTD/sodipodi-0.dtd"
   xmlns="http://www.w3.org/2000/svg"
   xmlns:svg="http://www.w3.org/2000/svg">
  <defs
     id="defs12" />
  <sodipodi:namedview
     id="namedview10"
     pagecolor="#505050"
     bordercolor="#eeeeee"
     borderopacity="1"
     inkscape:pageshadow="0"
     inkscape:pageopacity="0"
     inkscape:pagecheckerboard="0"
     showgrid="false"
     inkscape:zoom="34.625"
     inkscape:cx="12"
     inkscape:cy="11.98556"
     inkscape:window-width="1920"
     inkscape:window-height="1017"
     inkscape:window-x="-8"
     inkscape:window-y="-8"
     inkscape:window-maximized="1"
     inkscape:current-layer="svg8" />
  <g
     id="g6">
    <path
       fill="none"
       d="M0 0h24v24H0z"
       id="path2" />
    <path
       d="M5.33 3.271a3.5 3.5 0 0 1 4.472 4.474L20.647 18.59l-2.122 2.121L7.68 9.867a3.5 3.5 0 0 1-4.472-4.474L5.444 7.63a1.5 1.5 0 1 0 2.121-2.121L5.329 3.27zm10.367 1.884l3.182-1.768 1.414 1.414-1.768 3.182-1.768.354-2.12 2.121-1.415-1.414 2.121-2.121.354-1.768zm-7.071 7.778l2.121 2.122-4.95 4.95A1.5 1.5 0 0 1 3.58 17.99l.097-.107 4.95-4.95z"
       id="path4"
       style="stroke:#ffffff;stroke-opacity:1" />
  </g>
</svg>
