<?xml version="1.0" encoding="UTF-8" standalone="no"?>
<svg
   viewBox="0 0 24 24"
   version="1.1"
   id="svg8"
   sodipodi:docname="youtube-fill.svg"
   inkscape:version="1.1.2 (0a00cf5339, 2022-02-04, custom)"
   xmlns:inkscape="http://www.inkscape.org/namespaces/inkscape"
   xmlns:sodipodi="http://sodipodi.sourceforge.net/DTD/sodipodi-0.dtd"
   xmlns="http://www.w3.org/2000/svg"
   xmlns:svg="http://www.w3.org/2000/svg">
  <defs
     id="defs12" />
  <sodipodi:namedview
     id="namedview10"
     pagecolor="#505050"
     bordercolor="#eeeeee"
     borderopacity="1"
     inkscape:pageshadow="0"
     inkscape:pageopacity="0"
     inkscape:pagecheckerboard="0"
     showgrid="false"
     inkscape:zoom="34.625"
     inkscape:cx="12"
     inkscape:cy="11.98556"
     inkscape:window-width="1920"
     inkscape:window-height="1017"
     inkscape:window-x="-8"
     inkscape:window-y="-8"
     inkscape:window-maximized="1"
     inkscape:current-layer="svg8" />
  <g
     id="g6">
    <path
       fill="none"
       d="M0 0h24v24H0z"
       id="path2" />
    <path
       d="M 21.543,6.498 C 22,8.28 22,12 22,12 c 0,0 0,3.72 -0.457,5.502 -0.254,0.985 -0.997,1.76 -1.938,2.022 C 17.896,20 12,20 12,20 12,20 6.107,20 4.395,19.524 3.45,19.258 2.708,18.484 2.457,17.502 2,15.72 2,12 2,12 2,12 2,8.28 2.457,6.498 2.711,5.513 3.454,4.738 4.395,4.476 6.107,4 12,4 12,4 c 0,0 5.896,0 7.605,0.476 0.945,0.266 1.687,1.04 1.938,2.022 z"
       id="path4"
       style="fill:#fe0000;fill-opacity:1;stroke:#ffffff;stroke-opacity:1"
       sodipodi:nodetypes="ccccccccccccc" />
  </g>
  <path
     d="M 10,15.5 16,12 10,8.5 Z"
     style="fill:#fefefe;fill-opacity:1;stroke:none;stroke-opacity:1"
     id="path1308" />
</svg>
