{"accessors":[{"bufferView":0,"byteOffset":0,"componentType":5126,"count":439,"max":[1.874953,3.875,0.25],"min":[-1.875,-0.5,-0.25],"normalized":false,"type":"VEC3"},{"bufferView":1,"byteOffset":0,"componentType":5126,"count":439,"max":[1,0.837401,1,1],"min":[-1,-0.971857,-1,1],"normalized":false,"type":"VEC4"},{"bufferView":2,"byteOffset":0,"componentType":5126,"count":439,"max":[1,1,0.999965],"min":[-1,-0.991452,-1],"normalized":false,"type":"VEC3"},{"bufferView":3,"byteOffset":0,"componentType":5126,"count":439,"max":[0.910704,0.979156],"min":[0.089281,0.020829],"normalized":false,"type":"VEC2"},{"bufferView":4,"byteOffset":0,"componentType":5125,"count":600,"max":[372],"min":[0],"normalized":false,"type":"SCALAR"},{"bufferView":5,"byteOffset":0,"componentType":5126,"count":22,"max":[1.448189,3.448224,0],"min":[-1.448223,0.05,0],"normalized":false,"type":"VEC3"},{"bufferView":6,"byteOffset":0,"componentType":5126,"count":22,"max":[1,0,0.000048,-1],"min":[1,0,0.000048,-1],"normalized":false,"type":"VEC4"},{"bufferView":7,"byteOffset":0,"componentType":5126,"count":22,"max":[-0.000048,0,1],"min":[-0.000048,0,1],"normalized":false,"type":"VEC3"},{"bufferView":8,"byteOffset":0,"componentType":5126,"count":22,"max":[0.817212,0.858671],"min":[0.182773,0.114321],"normalized":false,"type":"VEC2"},{"bufferView":9,"byteOffset":0,"componentType":5125,"count":36,"max":[21],"min":[0],"normalized":false,"type":"SCALAR"},{"bufferView":10,"byteOffset":0,"componentType":5126,"count":600,"max":[1.875,3.875,0.25],"min":[-1.875,-0.5,-0.25],"normalized":false,"type":"VEC3"},{"bufferView":11,"byteOffset":0,"componentType":5125,"count":600,"max":[599],"min":[0],"normalized":false,"type":"SCALAR"}],"asset":{"generator":"Godot Engine v4.2.1.stable.official@b09f793f564a6c95dc76acc654b390e68441bd01","version":"2.0"},"bufferViews":[{"buffer":0,"byteLength":5268,"byteOffset":0},{"buffer":0,"byteLength":7024,"byteOffset":5268},{"buffer":0,"byteLength":5268,"byteOffset":12292},{"buffer":0,"byteLength":3512,"byteOffset":17560},{"buffer":0,"byteLength":2400,"byteOffset":21072},{"buffer":0,"byteLength":264,"byteOffset":23472},{"buffer":0,"byteLength":352,"byteOffset":23736},{"buffer":0,"byteLength":264,"byteOffset":24088},{"buffer":0,"byteLength":176,"byteOffset":24352},{"buffer":0,"byteLength":144,"byteOffset":24528},{"buffer":0,"byteLength":7200,"byteOffset":24672},{"buffer":0,"byteLength":2400,"byteOffset":31872}],"buffers":[{"byteLength":34272,"uri":"goal_gate0.bin"}],"extensions":{"OMI_collider":{"colliders":[{"isTrigger":true,"size":[2.91300010681152,2.21300005912781,0.25],"type":"box"},{"height":0.25,"isTrigger":true,"radius":1.43700003623962,"type":"cylinder"},{"mesh":1,"type":"trimesh"}]}},"extensionsUsed":["GODOT_single_root","KHR_materials_emissive_strength","OMI_collider","OMI_physics_body"],"materials":[{"emissiveFactor":[0.383458077907562,0.447503685951233,0.42227703332901],"extensions":{"KHR_materials_emissive_strength":{"emissiveStrength":0.300000011920929}},"pbrMetallicRoughness":{"baseColorFactor":[0.0122864842414856,0.0176419485360384,0.0144438408315182,1],"metallicFactor":0,"roughnessFactor":1}},{}],"meshes":[{"extras":{"targetNames":[]},"primitives":[{"attributes":{"NORMAL":2,"POSITION":0,"TANGENT":1,"TEXCOORD_0":3},"indices":4,"material":0,"mode":4},{"attributes":{"NORMAL":7,"POSITION":5,"TANGENT":6,"TEXCOORD_0":8},"indices":9,"material":1,"mode":4}]},{"extras":{"targetNames":[]},"primitives":[{"attributes":{"POSITION":10},"indices":11,"mode":4}]}],"nodes":[{"children":[1,4,5],"extensions":{},"name":"Goal"},{"children":[2,3],"extensions":{"OMI_physics_body":{"type":"trigger"}},"name":"FinishArea"},{"extensions":{"OMI_collider":{"collider":0}},"name":"CollisionShape3D","translation":[0,0.901446998119354,0]},{"extensions":{"OMI_collider":{"collider":1}},"name":"CollisionShape3d","rotation":[-0.70710676908493,0,0,0.70710676908493],"translation":[0,2,0]},{"extensions":{},"name":"ConfettiParticles"},{"children":[6],"extensions":{},"mesh":0,"name":"GateMeshInstance"},{"children":[7],"extensions":{"OMI_physics_body":{"type":"static"}},"name":"StaticBody3d"},{"extensions":{"OMI_collider":{"collider":2}},"name":"CollisionShape3d2"}],"scene":0,"scenes":[{"nodes":[0]}]}