{"accessors":[{"bufferView":0,"byteOffset":0,"componentType":5126,"count":363,"max":[2.374938,0.25,2.375],"min":[-2.375,-0.25,-2.375],"normalized":false,"type":"VEC3"},{"bufferView":1,"byteOffset":0,"componentType":5126,"count":363,"max":[0.999993,1,0.777138,1],"min":[-0.982964,-1,-0.777138,1],"normalized":false,"type":"VEC4"},{"bufferView":2,"byteOffset":0,"componentType":5126,"count":363,"max":[0.896853,0.999893,0.982973],"min":[-0.965932,-0.999893,-0.982964],"normalized":false,"type":"VEC3"},{"bufferView":3,"byteOffset":0,"componentType":5126,"count":363,"max":[0.992844,0.992844],"min":[0.007141,0.007141],"normalized":false,"type":"VEC2"},{"bufferView":4,"byteOffset":0,"componentType":5125,"count":576,"max":[362],"min":[0],"normalized":false,"type":"SCALAR"},{"bufferView":5,"byteOffset":0,"componentType":5126,"count":19,"max":[1.948223,0,1.948223],"min":[-1.948223,0,-1.948223],"normalized":false,"type":"VEC3"},{"bufferView":6,"byteOffset":0,"componentType":5126,"count":19,"max":[1,0.000015,-0.000015,1],"min":[1,0.000015,-0.000015,1],"normalized":false,"type":"VEC4"},{"bufferView":7,"byteOffset":0,"componentType":5126,"count":19,"max":[-0.000015,1,0.000024],"min":[-0.000015,1,0.000024],"normalized":false,"type":"VEC3"},{"bufferView":8,"byteOffset":0,"componentType":5126,"count":19,"max":[0.90428,0.90428],"min":[0.095705,0.095705],"normalized":false,"type":"VEC2"},{"bufferView":9,"byteOffset":0,"componentType":5125,"count":48,"max":[18],"min":[0],"normalized":false,"type":"SCALAR"},{"bufferView":10,"byteOffset":0,"componentType":5126,"count":576,"max":[2.375,0.25,2.375],"min":[-2.375,-0.25,-2.375],"normalized":false,"type":"VEC3"},{"bufferView":11,"byteOffset":0,"componentType":5125,"count":576,"max":[575],"min":[0],"normalized":false,"type":"SCALAR"}],"asset":{"generator":"Godot Engine v4.2.1.stable.official@b09f793f564a6c95dc76acc654b390e68441bd01","version":"2.0"},"bufferViews":[{"buffer":0,"byteLength":4356,"byteOffset":0},{"buffer":0,"byteLength":5808,"byteOffset":4356},{"buffer":0,"byteLength":4356,"byteOffset":10164},{"buffer":0,"byteLength":2904,"byteOffset":14520},{"buffer":0,"byteLength":2304,"byteOffset":17424},{"buffer":0,"byteLength":228,"byteOffset":19728},{"buffer":0,"byteLength":304,"byteOffset":19956},{"buffer":0,"byteLength":228,"byteOffset":20260},{"buffer":0,"byteLength":152,"byteOffset":20488},{"buffer":0,"byteLength":192,"byteOffset":20640},{"buffer":0,"byteLength":6912,"byteOffset":20832},{"buffer":0,"byteLength":2304,"byteOffset":27744}],"buffers":[{"byteLength":30048,"uri":"goal_ring0.bin"}],"extensions":{"OMI_collider":{"colliders":[{"height":0.290969997644424,"isTrigger":true,"radius":1.95183002948761,"type":"cylinder"},{"mesh":1,"type":"trimesh"}]}},"extensionsUsed":["GODOT_single_root","KHR_materials_emissive_strength","OMI_collider","OMI_physics_body"],"materials":[{"emissiveFactor":[0.383458077907562,0.447503685951233,0.42227703332901],"extensions":{"KHR_materials_emissive_strength":{"emissiveStrength":0.300000011920929}},"pbrMetallicRoughness":{"baseColorFactor":[0.0122864842414856,0.0176419485360384,0.0144438408315182,1],"metallicFactor":0,"roughnessFactor":1}},{}],"meshes":[{"extras":{"targetNames":[]},"primitives":[{"attributes":{"NORMAL":2,"POSITION":0,"TANGENT":1,"TEXCOORD_0":3},"indices":4,"material":0,"mode":4},{"attributes":{"NORMAL":7,"POSITION":5,"TANGENT":6,"TEXCOORD_0":8},"indices":9,"material":1,"mode":4}]},{"extras":{"targetNames":[]},"primitives":[{"attributes":{"POSITION":10},"indices":11,"mode":4}]}],"nodes":[{"children":[1,3,4],"extensions":{},"name":"Goal"},{"children":[2],"extensions":{"OMI_physics_body":{"type":"trigger"}},"name":"FinishArea"},{"extensions":{"OMI_collider":{"collider":0}},"name":"CollisionShape3D"},{"extensions":{},"name":"ConfettiParticles"},{"children":[5],"extensions":{},"mesh":0,"name":"RingMeshInstance"},{"children":[6],"extensions":{"OMI_physics_body":{"type":"static"}},"name":"StaticBody3d"},{"extensions":{"OMI_collider":{"collider":1}},"name":"CollisionShape3d"}],"scene":0,"scenes":[{"nodes":[0]}]}